<?xml version="1.0" standalone="no"?>
<!DOCTYPE svg PUBLIC "-//W3C//DTD SVG 20010904//EN"
 "http://www.w3.org/TR/2001/REC-SVG-20010904/DTD/svg10.dtd">
<svg version="1.0" xmlns="http://www.w3.org/2000/svg"
 width="700.000000pt" height="700.000000pt" viewBox="0 0 700.000000 700.000000"
 preserveAspectRatio="xMidYMid meet">
<metadata>
Created by potrace 1.14, written by Peter Selinger 2001-2017
</metadata>
<g transform="translate(0.000000,700.000000) scale(0.100000,-0.100000)"
fill="#000000" stroke="none">
<path d="M0 3500 l0 -3500 3500 0 3500 0 0 3500 0 3500 -3500 0 -3500 0 0
-3500z m4877 2355 l1391 -790 6 -580 c4 -319 8 -1045 9 -1614 l2 -1035 -1380
-811 c-759 -447 -1382 -811 -1385 -810 -3 1 -633 358 -1401 794 l-1397 793 -7
1121 c-4 617 -8 1342 -9 1611 l-1 490 1380 812 c759 447 1385 812 1391 811 5
-1 636 -357 1401 -792z"/>
<path d="M2315 5767 c-638 -375 -1206 -709 -1263 -742 -56 -32 -102 -61 -102
-65 0 -3 580 -322 1290 -709 l1289 -703 43 24 c175 98 2428 1432 2428 1437 0
4 -2011 1152 -2459 1403 l-66 37 -1160 -682z"/>
<path d="M903 4938 c-16 -8 -23 -20 -23 -40 0 -38 6 -35 30 12 11 22 19 40 18
39 -2 0 -13 -5 -25 -11z"/>
<path d="M4915 4159 c-643 -379 -1205 -710 -1249 -735 l-79 -46 8 -1302 c4
-715 10 -1370 14 -1453 l6 -153 1254 737 1254 737 -7 496 c-3 272 -9 926 -12
1453 -4 526 -10 957 -13 957 -3 0 -532 -311 -1176 -691z"/>
<path d="M884 3679 c3 -613 9 -1263 12 -1446 l7 -332 1260 -716 c693 -394
1262 -713 1265 -711 4 5 -17 2939 -21 2942 -1005 547 -2488 1355 -2506 1364
l-24 12 7 -1113z"/>
</g>
</svg>
